<svg id="レイヤー_1" data-name="レイヤー 1" xmlns="http://www.w3.org/2000/svg" width="165.382" height="39.863" viewBox="0 0 165.382 39.863">
  <g id="グループ_4" data-name="グループ 4">
    <g id="グループ_1" data-name="グループ 1" transform="translate(86.001 31.916)">
      <path id="パス_1" data-name="パス 1" d="M128.052,50.257a2.946,2.946,0,0,1,2.22.866,2.386,2.386,0,0,1,.715,1.7,2.746,2.746,0,0,1-.392,1.361,2.572,2.572,0,0,1-1.079,1.038,3.331,3.331,0,0,1-1.533.351,2.79,2.79,0,0,1-2.186-.9,2.514,2.514,0,0,1-.687-1.712,2.653,2.653,0,0,1,.412-1.375,2.576,2.576,0,0,1,1.093-1.01,3.231,3.231,0,0,1,1.437-.323Zm-.206.351a1.578,1.578,0,0,0-.708.172,1.336,1.336,0,0,0-.577.6,2.488,2.488,0,0,0-.22,1.114,3.351,3.351,0,0,0,.529,1.89,1.611,1.611,0,0,0,1.4.8,1.4,1.4,0,0,0,1.065-.44,2.143,2.143,0,0,0,.419-1.505,2.991,2.991,0,0,0-.7-2.1A1.549,1.549,0,0,0,127.846,50.607Z" transform="translate(-125.11 -47.624)" fill="#fff"/>
      <path id="パス_2" data-name="パス 2" d="M139.17,51.315a3.034,3.034,0,0,1,2.042-1.065,1.71,1.71,0,0,1,.859.206,1.4,1.4,0,0,1,.571.674,2.663,2.663,0,0,1,.144,1.01v2.145a1.4,1.4,0,0,0,.1.646.506.506,0,0,0,.234.213,1.655,1.655,0,0,0,.6.076v.2H140.71v-.2h.124a1.164,1.164,0,0,0,.6-.11.554.554,0,0,0,.234-.316,2.392,2.392,0,0,0,.027-.516V52.223a1.79,1.79,0,0,0-.213-1,.824.824,0,0,0-.729-.309,2.359,2.359,0,0,0-1.574.715v2.646a1.6,1.6,0,0,0,.076.632.558.558,0,0,0,.254.234,1.917,1.917,0,0,0,.66.076v.2h-3.011v-.2h.131a.781.781,0,0,0,.626-.192,1.2,1.2,0,0,0,.165-.742V52.422a6.588,6.588,0,0,0-.048-1.1.454.454,0,0,0-.151-.268.466.466,0,0,0-.275-.069,1.513,1.513,0,0,0-.447.082l-.1-.2,1.835-.612h.289v1.065Z" transform="translate(-128.846 -47.624)" fill="#fff"/>
      <path id="パス_3" data-name="パス 3" d="M151.681,46.437v5l1.547-1.169a4.276,4.276,0,0,0,.571-.474.216.216,0,0,0,.055-.131.211.211,0,0,0-.11-.186.669.669,0,0,0-.364-.089v-.179h2.646v.179a3,3,0,0,0-.907.137,3.074,3.074,0,0,0-.8.447l-1.56,1.189,1.56,1.629a11.387,11.387,0,0,0,.88.852,1.957,1.957,0,0,0,.557.337,2.162,2.162,0,0,0,.577.055v.2h-2.963v-.2a.737.737,0,0,0,.344-.062.179.179,0,0,0,.089-.165c0-.082-.089-.22-.268-.406l-1.87-1.966V53.1a1.591,1.591,0,0,0,.082.639.455.455,0,0,0,.234.22,2.136,2.136,0,0,0,.667.069v.2h-3.1v-.2a1.859,1.859,0,0,0,.7-.1.436.436,0,0,0,.213-.186,1.369,1.369,0,0,0,.1-.626V48.547a6.289,6.289,0,0,0-.048-1.065.454.454,0,0,0-.151-.268.489.489,0,0,0-.282-.076,1.491,1.491,0,0,0-.419.1l-.11-.192,1.808-.612h.309Z" transform="translate(-132.75 -46.43)" fill="#fff"/>
      <path id="パス_4" data-name="パス 4" d="M167.674,50.464V53.5a6.234,6.234,0,0,0,.048,1.065.394.394,0,0,0,.412.344,1.417,1.417,0,0,0,.467-.1l.1.192-1.822.619h-.3V54.561a5.212,5.212,0,0,1-1.2.88,2.2,2.2,0,0,1-.873.179,1.613,1.613,0,0,1-.887-.241,1.309,1.309,0,0,1-.522-.626,3.205,3.205,0,0,1-.144-1.086V51.426a.942.942,0,0,0-.1-.495.545.545,0,0,0-.275-.213,2.082,2.082,0,0,0-.66-.069v-.2h2.138v3.361a1.1,1.1,0,0,0,.3.921,1.179,1.179,0,0,0,.715.22,1.757,1.757,0,0,0,.646-.144,3.469,3.469,0,0,0,.859-.564V51.4a.7.7,0,0,0-.192-.577,1.461,1.461,0,0,0-.79-.165v-.2h2.076Z" transform="translate(-136.617 -47.687)" fill="#fff"/>
      <path id="パス_5" data-name="パス 5" d="M176.637,50.26v1.127c.509-.749,1.031-1.127,1.567-1.127a.961.961,0,0,1,.6.186.533.533,0,0,1,.241.426.462.462,0,0,1-.172.364.629.629,0,0,1-.412.144.985.985,0,0,1-.522-.186.958.958,0,0,0-.426-.186.423.423,0,0,0-.261.11,2.744,2.744,0,0,0-.619.742v2.406a1.3,1.3,0,0,0,.124.632.649.649,0,0,0,.309.247,1.544,1.544,0,0,0,.632.1v.2h-3.121v-.2a1.509,1.509,0,0,0,.694-.124.505.505,0,0,0,.234-.282,2.4,2.4,0,0,0,.034-.529V52.363a7,7,0,0,0-.041-1.045.385.385,0,0,0-.158-.241.529.529,0,0,0-.289-.076,1.561,1.561,0,0,0-.467.082l-.069-.2,1.842-.612h.282Z" transform="translate(-140.556 -47.627)" fill="#fff"/>
      <path id="パス_6" data-name="パス 6" d="M186.268,49.066V53.1a1.533,1.533,0,0,0,.082.626.544.544,0,0,0,.247.234,1.519,1.519,0,0,0,.6.076v.2h-2.963v-.2a1.653,1.653,0,0,0,.6-.069.5.5,0,0,0,.241-.234,1.448,1.448,0,0,0,.089-.632V51.169a5.525,5.525,0,0,0-.062-1.059.391.391,0,0,0-.144-.241.466.466,0,0,0-.275-.069,1.592,1.592,0,0,0-.454.082l-.1-.2,1.835-.612h.3Zm-.55-2.626a.712.712,0,0,1,.474.165.485.485,0,0,1,0,.784.712.712,0,0,1-.474.165.743.743,0,0,1-.481-.165.5.5,0,0,1-.2-.392.482.482,0,0,1,.2-.392A.718.718,0,0,1,185.718,46.44Z" transform="translate(-143.56 -46.433)" fill="#fff"/>
    </g>
    <g id="グループ_2" data-name="グループ 2" transform="translate(49.603 4.021)">
      <path id="パス_7" data-name="パス 7" d="M95.05,28.11c-4.193,0-6.386-1.828-7.266-4.3h.192A6.825,6.825,0,0,0,93.7,26.233c3.733,0,5.348-1.883,5.348-3.623,0-3.245-4.5-3.437-5.616-3.437A23.1,23.1,0,0,0,84.2,21.16c.041.873.536,5.011.536,5.479a3.015,3.015,0,0,1-2.31,3.052c-.461,0-.619-.137-1.883-1.444a13.644,13.644,0,0,0-3.08-2.4c-.461.433-1.114,1.148-1.5,1.581a1.273,1.273,0,0,1-.962.433c-1.657,0-2.846-.983-2.846-2.289a3.109,3.109,0,0,1,.309-1.361c.653.571.962.846,1.54.846a4.131,4.131,0,0,0,1.615-.681c.962-.543,3.843-2.1,6.269-3.272-.041-1.828-.041-2.344,0-4.984a12.568,12.568,0,0,1-3.382.543c-3.5,0-3.843-1.828-3.925-2.427a6.018,6.018,0,0,0,2.846.708,17.341,17.341,0,0,0,4.5-.681c0-.543.041-2.97.041-3.458,0-.955-.041-1.5-.846-2.042-.076-.055-1.732-.708-1.883-.763a5.225,5.225,0,0,1,2.578-.653c1.079,0,4,.791,4,1.719a9.783,9.783,0,0,1-.729,1.609,10.786,10.786,0,0,0-.694,2.915,19.493,19.493,0,0,0,2.152-.846,3.987,3.987,0,0,1,2-.626c1,0,1.883.461,1.883.955,0,.543-.729.873-1.272,1.038-1.306.406-3.306.955-5,1.389a40.151,40.151,0,0,0-.076,4.633A31.345,31.345,0,0,1,95.16,17.9c3.5,0,7.5,1.471,7.5,4.881,0,2.8-3,5.341-7.616,5.341ZM81.942,22.3A17.064,17.064,0,0,0,77.6,25.71a19.215,19.215,0,0,0,3.925.873.483.483,0,0,0,.426-.165,4.623,4.623,0,0,0,.151-1.526c0-.357-.117-2.179-.151-2.592Zm19.6-6.242a4.842,4.842,0,0,1-2.076-.543,2.205,2.205,0,0,0-.694-.055c-.536,0-2.921.22-3.382.275v-.11c.309-.192,1.925-.955,2.227-1.12.385-.22.887-.516.887-.873,0-1.251-3.65-1.9-5.382-2.1a7.284,7.284,0,0,1,3.19-.571c3.959,0,6.688,1.987,6.688,3.953,0,.22,0,1.141-1.464,1.141Z" transform="translate(-72.16 -6.319)" fill="#fff"/>
      <path id="パス_8" data-name="パス 8" d="M155.136,19.792c-1.959,5.424-5.726,9.156-10.84,9.156-4.461,0-4.846-2.262-5.156-4.3-.385-2.317-.694-4.173-3.265-4.173-4.31,0-6.881,4.441-8.187,6.7-.921,1.581-1.23,2.069-2.42,2.069s-1.5-1.169-1.5-1.883c0-.571.192-1.01,1.54-2.344.77-.736,2.536-2.482,7.96-9.837.694-.928,2.846-3.9,2.846-4.5,0-.763-.8-1.038-2.537-1.636a3.08,3.08,0,0,1,1.959-.488c2.344,0,4.654,1.5,4.654,2.667,0,.543-.192.681-1.842,2.152-.653.571-6.462,6.022-7.534,7.878,2.227-1.065,4.076-1.9,6.537-1.9,3.574,0,4.035,1.773,4.688,4.221.461,1.691.8,2.942,2.921,2.942,3,0,7.149-2.942,9.8-6.812l.385.082Z" transform="translate(-88.293 -6.697)" fill="#fff"/>
      <path id="パス_9" data-name="パス 9" d="M190.35,30.555c-.846,0-1.114-.33-3.616-3.08-1.5-1.636-2.5-2.344-9.5-7.245-.577-.385-1.574-1.224-1.574-2.152,0-.433.117-.955,1.54-1.987,6.152-4.578,6.764-5.011,9-7.328a1.318,1.318,0,0,0,.5-.818c0-.192-.192-.955-2.193-2.014a3.072,3.072,0,0,1,.729-.082c3.54,0,5.348,2.124,5.348,2.915,0,.708-.694,1.093-1.457,1.5-1.306.681-7.458,4.523-10.538,6.84a1.284,1.284,0,0,0-.619.928c0,.708.385.928,2.846,2.4,6.881,4.173,9.5,5.726,10.538,6.95a2.185,2.185,0,0,1,.577,1.416,1.663,1.663,0,0,1-1.574,1.773Z" transform="translate(-104.514 -5.85)" fill="#fff"/>
      <path id="パス_10" data-name="パス 10" d="M227.035,28.206a18.7,18.7,0,0,1-6.386,2.8l-.151-.11c7.994-4.145,8.73-10.38,8.73-13.789,0-1.856-.227-6.379-3.114-6.379-1.347,0-2.42.873-3.843,2.86a12.421,12.421,0,0,0-2.536,6.462c0,.433.426,2.344.426,2.75,0,.275,0,1.038-1.272,1.038-1.54,0-3.155-1.938-3.155-5.231a28.912,28.912,0,0,1,.653-5.644c.117-.571.77-3.217.77-3.705,0-.3-.076-1.609-2.117-2.427a9.7,9.7,0,0,1,2.193-.385c1.155,0,3.382.983,3.382,2.124a1.952,1.952,0,0,1-.5,1.2,11.278,11.278,0,0,0-2.31,6.977c0,.33,0,1.773.268,1.773.192,0,.268-.165.344-.275,1.959-4.221,4.729-8.936,8.654-8.936,5.073,0,5.534,5.671,5.534,8.256,0,5.176-1.691,8.036-5.575,10.627Z" transform="translate(-116.824 -6.038)" fill="#fff"/>
    </g>
    <g id="グループ_3" data-name="グループ 3">
      <path id="パス_11" data-name="パス 11" d="M17.481,25.7,8.056,16.271a2.452,2.452,0,0,1,0-3.465l4.2-4.2A2.452,2.452,0,0,1,15.7,8.586l2.736,2.674.034-7.328L14.532,0,0,14.532,17.371,31.9l.1-6.214Z" fill="#a81b4b"/>
      <path id="パス_12" data-name="パス 12" d="M25.324,32.027,25.2,38.578,49.225,14.56,34.748.09,30.857,3.981l.014,7.307,2.736-2.626a2.455,2.455,0,0,1,3.43.034l4.131,4.131a2.452,2.452,0,0,1,0,3.465L25.324,32.027Z" transform="translate(-7.878 -0.028)" fill="#006934"/>
    </g>
  </g>
</svg>
